<svg width="450" height="450" viewBox="0 0 450 450" fill="none" xmlns="http://www.w3.org/2000/svg">
  <rect width="450" height="450" fill="#F3F4F6"/>
  <circle cx="225" cy="225" r="100" fill="#E5E7EB"/>
  <path d="M225 125C169.772 125 125 169.772 125 225C125 280.228 169.772 325 225 325C280.228 325 325 280.228 325 225C325 169.772 280.228 125 225 125ZM225 145C269.183 145 305 180.817 305 225C305 269.183 269.183 305 225 305C180.817 305 145 269.183 145 225C145 180.817 180.817 145 225 145Z" fill="#9CA3AF"/>
  <path d="M225 165C191.863 165 165 191.863 165 225C165 258.137 191.863 285 225 285C258.137 285 285 258.137 285 225C285 191.863 258.137 165 225 165ZM225 185C247.091 185 265 202.909 265 225C265 247.091 247.091 265 225 265C202.909 265 185 247.091 185 225C185 202.909 202.909 185 225 185Z" fill="#6B7280"/>
  <path d="M225 205C213.954 205 205 213.954 205 225C205 236.046 213.954 245 225 245C236.046 245 245 236.046 245 225C245 213.954 236.046 205 225 205Z" fill="#4B5563"/>
  <text x="225" y="375" font-family="Arial" font-size="24" text-anchor="middle" fill="#4B5563">おはよう日記アプリ</text>
</svg>
